# xmcd CD database file
#
# Track frame offsets:
#	150
#	19500
#	37950
#	68326
#	104177
#	122253
#
# Disc length: 2020 seconds
#
# Revision: 0
# Processed by: cddbd v1.5.2PL0 Copyright (c) Steve Scherf et al.
# Submitted via: CDex 1.70beta2
#
DISCID=3f07e206
DTITLE=土井啓輔、谷川賢作 - Touch to the light
DYEAR=2002
DGENRE=Jazz
TTITLE0=FISH IN THE MORNING
TTITLE1=LIBERTANGO
TTITLE2=ALWAYS AND FOREVER
TTITLE3=破獅子 HA-SHI-SHI
TTITLE4=BAMBOO DE GROOVE
TTITLE5=秋田おはら節 AKITA OHARABUSHI
EXTD=YEAR: 2002
EXTT0=
EXTT1=
EXTT2=
EXTT3=
EXTT4=
EXTT5=
PLAYORDER=
